<mxfile host="65bd71144e">
    <diagram name="CASOS DE USO" id="7-VPQstgyVf9_1YUy5Hi">
        <mxGraphModel dx="1171" dy="1230" grid="1" gridSize="10" guides="1" tooltips="1" connect="1" arrows="1" fold="1" page="0" pageScale="1" pageWidth="827" pageHeight="1169" background="none" math="0" shadow="0">
            <root>
                <mxCell id="0"/>
                <mxCell id="1" parent="0"/>
                <mxCell id="M7EvmAqDSTVYz1lRvBlp-34" value="" style="group;rounded=1;" parent="1" vertex="1" connectable="0">
                    <mxGeometry x="340" y="410" width="140" height="220" as="geometry"/>
                </mxCell>
                <mxCell id="M7EvmAqDSTVYz1lRvBlp-18" value="" style="rounded=1;whiteSpace=wrap;html=1;fillColor=#ffe6cc;strokeColor=#d79b00;" parent="M7EvmAqDSTVYz1lRvBlp-34" vertex="1">
                    <mxGeometry width="140" height="220" as="geometry"/>
                </mxCell>
                <mxCell id="M7EvmAqDSTVYz1lRvBlp-19" value="Pedidos" style="text;html=1;align=center;verticalAlign=middle;whiteSpace=wrap;rounded=1;" parent="M7EvmAqDSTVYz1lRvBlp-34" vertex="1">
                    <mxGeometry x="35" width="70" height="30" as="geometry"/>
                </mxCell>
                <mxCell id="M7EvmAqDSTVYz1lRvBlp-20" value="Criar Pedido para entrega" style="ellipse;whiteSpace=wrap;html=1;rounded=1;" parent="M7EvmAqDSTVYz1lRvBlp-34" vertex="1">
                    <mxGeometry y="30" width="140" height="40" as="geometry"/>
                </mxCell>
                <mxCell id="M7EvmAqDSTVYz1lRvBlp-23" value="Editar Pedido" style="ellipse;whiteSpace=wrap;html=1;rounded=1;" parent="M7EvmAqDSTVYz1lRvBlp-34" vertex="1">
                    <mxGeometry y="85" width="140" height="50" as="geometry"/>
                </mxCell>
                <mxCell id="M7EvmAqDSTVYz1lRvBlp-22" value="Pagamento do Pedido" style="ellipse;whiteSpace=wrap;html=1;rounded=1;" parent="M7EvmAqDSTVYz1lRvBlp-34" vertex="1">
                    <mxGeometry y="150" width="140" height="50" as="geometry"/>
                </mxCell>
                <mxCell id="M7EvmAqDSTVYz1lRvBlp-1" value="Sistema" style="shape=umlActor;verticalLabelPosition=bottom;verticalAlign=top;html=1;outlineConnect=0;rounded=1;" parent="1" vertex="1">
                    <mxGeometry x="620" y="150" width="30" height="60" as="geometry"/>
                </mxCell>
                <mxCell id="Z_rt_pyKpgBujRWYzVDN-1" style="edgeStyle=entityRelationEdgeStyle;html=1;exitX=1;exitY=0.3333333333333333;exitDx=0;exitDy=0;exitPerimeter=0;entryX=0;entryY=0.5;entryDx=0;entryDy=0;" parent="1" source="M7EvmAqDSTVYz1lRvBlp-2" target="M7EvmAqDSTVYz1lRvBlp-23" edge="1">
                    <mxGeometry relative="1" as="geometry"/>
                </mxCell>
                <mxCell id="M7EvmAqDSTVYz1lRvBlp-2" value="Super Administrador" style="shape=umlActor;verticalLabelPosition=bottom;verticalAlign=top;html=1;outlineConnect=0;rounded=1;" parent="1" vertex="1">
                    <mxGeometry x="180" y="150" width="30" height="60" as="geometry"/>
                </mxCell>
                <mxCell id="Z_rt_pyKpgBujRWYzVDN-2" style="edgeStyle=entityRelationEdgeStyle;html=1;exitX=1;exitY=0.3333333333333333;exitDx=0;exitDy=0;exitPerimeter=0;entryX=0;entryY=0.5;entryDx=0;entryDy=0;" parent="1" source="M7EvmAqDSTVYz1lRvBlp-3" target="M7EvmAqDSTVYz1lRvBlp-23" edge="1">
                    <mxGeometry relative="1" as="geometry"/>
                </mxCell>
                <mxCell id="M7EvmAqDSTVYz1lRvBlp-3" value="FuncionÃ¡rio ADM" style="shape=umlActor;verticalLabelPosition=bottom;verticalAlign=top;html=1;outlineConnect=0;rounded=1;" parent="1" vertex="1">
                    <mxGeometry x="180" y="260" width="30" height="60" as="geometry"/>
                </mxCell>
                <mxCell id="M7EvmAqDSTVYz1lRvBlp-4" value="Atendente" style="shape=umlActor;verticalLabelPosition=bottom;verticalAlign=top;html=1;outlineConnect=0;rounded=1;" parent="1" vertex="1">
                    <mxGeometry x="160" y="500" width="30" height="60" as="geometry"/>
                </mxCell>
                <mxCell id="M7EvmAqDSTVYz1lRvBlp-9" value="" style="group;rounded=1;" parent="1" vertex="1" connectable="0">
                    <mxGeometry x="370" y="165" width="120" height="250" as="geometry"/>
                </mxCell>
                <mxCell id="M7EvmAqDSTVYz1lRvBlp-7" value="" style="rounded=1;whiteSpace=wrap;html=1;fillColor=#dae8fc;strokeColor=#6c8ebf;" parent="M7EvmAqDSTVYz1lRvBlp-9" vertex="1">
                    <mxGeometry x="-20" y="5" width="140" height="190" as="geometry"/>
                </mxCell>
                <mxCell id="M7EvmAqDSTVYz1lRvBlp-8" value="Produtos" style="text;html=1;align=center;verticalAlign=middle;whiteSpace=wrap;rounded=1;" parent="M7EvmAqDSTVYz1lRvBlp-9" vertex="1">
                    <mxGeometry x="30" width="60" height="30" as="geometry"/>
                </mxCell>
                <mxCell id="M7EvmAqDSTVYz1lRvBlp-10" value="Cadastrar Produto" style="ellipse;whiteSpace=wrap;html=1;rounded=1;" parent="M7EvmAqDSTVYz1lRvBlp-9" vertex="1">
                    <mxGeometry y="30" width="120" height="40" as="geometry"/>
                </mxCell>
                <mxCell id="M7EvmAqDSTVYz1lRvBlp-11" value="Remover Produto" style="ellipse;whiteSpace=wrap;html=1;rounded=1;" parent="M7EvmAqDSTVYz1lRvBlp-9" vertex="1">
                    <mxGeometry y="80" width="120" height="40" as="geometry"/>
                </mxCell>
                <mxCell id="M7EvmAqDSTVYz1lRvBlp-17" value="Atualizar Produto" style="ellipse;whiteSpace=wrap;html=1;rounded=1;" parent="M7EvmAqDSTVYz1lRvBlp-9" vertex="1">
                    <mxGeometry y="140" width="120" height="40" as="geometry"/>
                </mxCell>
                <mxCell id="M7EvmAqDSTVYz1lRvBlp-43" style="edgeStyle=orthogonalEdgeStyle;rounded=0;orthogonalLoop=1;jettySize=auto;html=1;exitX=0.5;exitY=1;exitDx=0;exitDy=0;" parent="M7EvmAqDSTVYz1lRvBlp-9" source="M7EvmAqDSTVYz1lRvBlp-10" target="M7EvmAqDSTVYz1lRvBlp-10" edge="1">
                    <mxGeometry relative="1" as="geometry"/>
                </mxCell>
                <mxCell id="M7EvmAqDSTVYz1lRvBlp-33" value="" style="group;rounded=1;" parent="1" vertex="1" connectable="0">
                    <mxGeometry x="360" y="10" width="120" height="120" as="geometry"/>
                </mxCell>
                <mxCell id="M7EvmAqDSTVYz1lRvBlp-24" value="" style="rounded=1;whiteSpace=wrap;html=1;fillColor=#d5e8d4;strokeColor=#82b366;" parent="M7EvmAqDSTVYz1lRvBlp-33" vertex="1">
                    <mxGeometry width="120" height="120" as="geometry"/>
                </mxCell>
                <mxCell id="M7EvmAqDSTVYz1lRvBlp-25" value="Ingredientes" style="text;html=1;align=center;verticalAlign=middle;whiteSpace=wrap;rounded=1;" parent="M7EvmAqDSTVYz1lRvBlp-33" vertex="1">
                    <mxGeometry x="30" width="60" height="30" as="geometry"/>
                </mxCell>
                <mxCell id="M7EvmAqDSTVYz1lRvBlp-26" value="Cadastrar Ingrediente" style="ellipse;whiteSpace=wrap;html=1;rounded=1;" parent="M7EvmAqDSTVYz1lRvBlp-33" vertex="1">
                    <mxGeometry y="30" width="120" height="40" as="geometry"/>
                </mxCell>
                <mxCell id="M7EvmAqDSTVYz1lRvBlp-27" value="Remover Ingrediente" style="ellipse;whiteSpace=wrap;html=1;rounded=1;" parent="M7EvmAqDSTVYz1lRvBlp-33" vertex="1">
                    <mxGeometry y="80" width="120" height="40" as="geometry"/>
                </mxCell>
                <mxCell id="M7EvmAqDSTVYz1lRvBlp-32" value="" style="group;rounded=1;comic=0;" parent="1" vertex="1" connectable="0">
                    <mxGeometry x="360" y="-110" width="120" height="100" as="geometry"/>
                </mxCell>
                <mxCell id="M7EvmAqDSTVYz1lRvBlp-29" value="" style="rounded=1;whiteSpace=wrap;html=1;fillColor=#f8cecc;strokeColor=#b85450;" parent="M7EvmAqDSTVYz1lRvBlp-32" vertex="1">
                    <mxGeometry width="120" height="100" as="geometry"/>
                </mxCell>
                <mxCell id="M7EvmAqDSTVYz1lRvBlp-30" value="Estoque" style="text;html=1;align=center;verticalAlign=middle;whiteSpace=wrap;rounded=1;" parent="M7EvmAqDSTVYz1lRvBlp-32" vertex="1">
                    <mxGeometry x="30" width="60" height="30" as="geometry"/>
                </mxCell>
                <mxCell id="M7EvmAqDSTVYz1lRvBlp-31" value="Atualizar a quantidade de algum ingrediente" style="ellipse;whiteSpace=wrap;html=1;rounded=1;" parent="M7EvmAqDSTVYz1lRvBlp-32" vertex="1">
                    <mxGeometry y="30" width="120" height="50" as="geometry"/>
                </mxCell>
                <mxCell id="M7EvmAqDSTVYz1lRvBlp-41" value="" style="endArrow=classic;startArrow=classic;html=1;rounded=0;exitX=1;exitY=0.3333333333333333;exitDx=0;exitDy=0;exitPerimeter=0;entryX=0;entryY=0.5;entryDx=0;entryDy=0;edgeStyle=entityRelationEdgeStyle;elbow=vertical;" parent="1" source="M7EvmAqDSTVYz1lRvBlp-4" target="M7EvmAqDSTVYz1lRvBlp-23" edge="1">
                    <mxGeometry width="50" height="50" relative="1" as="geometry">
                        <mxPoint x="250" y="440" as="sourcePoint"/>
                        <mxPoint x="300" y="390" as="targetPoint"/>
                    </mxGeometry>
                </mxCell>
                <mxCell id="M7EvmAqDSTVYz1lRvBlp-44" value="" style="endArrow=classic;startArrow=classic;html=1;rounded=0;exitX=1;exitY=0.3333333333333333;exitDx=0;exitDy=0;exitPerimeter=0;entryX=0;entryY=0.5;entryDx=0;entryDy=0;edgeStyle=entityRelationEdgeStyle;" parent="1" source="M7EvmAqDSTVYz1lRvBlp-3" target="M7EvmAqDSTVYz1lRvBlp-7" edge="1">
                    <mxGeometry width="50" height="50" relative="1" as="geometry">
                        <mxPoint x="300" y="320" as="sourcePoint"/>
                        <mxPoint x="320" y="270" as="targetPoint"/>
                    </mxGeometry>
                </mxCell>
                <mxCell id="M7EvmAqDSTVYz1lRvBlp-45" value="" style="endArrow=classic;startArrow=classic;html=1;rounded=0;exitX=1;exitY=0.3333333333333333;exitDx=0;exitDy=0;exitPerimeter=0;entryX=0;entryY=0.25;entryDx=0;entryDy=0;edgeStyle=entityRelationEdgeStyle;" parent="1" source="M7EvmAqDSTVYz1lRvBlp-2" target="M7EvmAqDSTVYz1lRvBlp-7" edge="1">
                    <mxGeometry width="50" height="50" relative="1" as="geometry">
                        <mxPoint x="290" y="230" as="sourcePoint"/>
                        <mxPoint x="340" y="180" as="targetPoint"/>
                    </mxGeometry>
                </mxCell>
                <mxCell id="M7EvmAqDSTVYz1lRvBlp-46" value="" style="endArrow=classic;startArrow=classic;html=1;rounded=0;exitX=1;exitY=0.3333333333333333;exitDx=0;exitDy=0;exitPerimeter=0;entryX=0.002;entryY=0.564;entryDx=0;entryDy=0;entryPerimeter=0;edgeStyle=entityRelationEdgeStyle;" parent="1" source="M7EvmAqDSTVYz1lRvBlp-2" target="M7EvmAqDSTVYz1lRvBlp-24" edge="1">
                    <mxGeometry width="50" height="50" relative="1" as="geometry">
                        <mxPoint x="190" y="140" as="sourcePoint"/>
                        <mxPoint x="240" y="90" as="targetPoint"/>
                    </mxGeometry>
                </mxCell>
                <mxCell id="M7EvmAqDSTVYz1lRvBlp-47" value="" style="endArrow=classic;startArrow=classic;html=1;rounded=0;exitX=1;exitY=0.3333333333333333;exitDx=0;exitDy=0;exitPerimeter=0;entryX=0;entryY=0.5;entryDx=0;entryDy=0;edgeStyle=entityRelationEdgeStyle;" parent="1" source="M7EvmAqDSTVYz1lRvBlp-2" target="M7EvmAqDSTVYz1lRvBlp-31" edge="1">
                    <mxGeometry width="50" height="50" relative="1" as="geometry">
                        <mxPoint x="220" y="130" as="sourcePoint"/>
                        <mxPoint x="270" y="80" as="targetPoint"/>
                    </mxGeometry>
                </mxCell>
                <mxCell id="M7EvmAqDSTVYz1lRvBlp-48" value="" style="endArrow=classic;startArrow=classic;html=1;rounded=0;exitX=1;exitY=0.375;exitDx=0;exitDy=0;exitPerimeter=0;entryX=0;entryY=0.3333333333333333;entryDx=0;entryDy=0;entryPerimeter=0;edgeStyle=entityRelationEdgeStyle;" parent="1" source="M7EvmAqDSTVYz1lRvBlp-11" target="M7EvmAqDSTVYz1lRvBlp-1" edge="1">
                    <mxGeometry width="50" height="50" relative="1" as="geometry">
                        <mxPoint x="550" y="260" as="sourcePoint"/>
                        <mxPoint x="600" y="210" as="targetPoint"/>
                    </mxGeometry>
                </mxCell>
                <mxCell id="M7EvmAqDSTVYz1lRvBlp-49" value="" style="endArrow=classic;startArrow=classic;html=1;rounded=0;exitX=1;exitY=0.5;exitDx=0;exitDy=0;entryX=0;entryY=0.3333333333333333;entryDx=0;entryDy=0;entryPerimeter=0;edgeStyle=entityRelationEdgeStyle;" parent="1" source="M7EvmAqDSTVYz1lRvBlp-23" target="M7EvmAqDSTVYz1lRvBlp-1" edge="1">
                    <mxGeometry width="50" height="50" relative="1" as="geometry">
                        <mxPoint x="480" y="530" as="sourcePoint"/>
                        <mxPoint x="610" y="230" as="targetPoint"/>
                    </mxGeometry>
                </mxCell>
                <mxCell id="M7EvmAqDSTVYz1lRvBlp-50" value="" style="endArrow=classic;startArrow=classic;html=1;rounded=0;exitX=1;exitY=0.5;exitDx=0;exitDy=0;entryX=0;entryY=0.3333333333333333;entryDx=0;entryDy=0;entryPerimeter=0;edgeStyle=entityRelationEdgeStyle;" parent="1" source="M7EvmAqDSTVYz1lRvBlp-24" target="M7EvmAqDSTVYz1lRvBlp-1" edge="1">
                    <mxGeometry width="50" height="50" relative="1" as="geometry">
                        <mxPoint x="510" y="280" as="sourcePoint"/>
                        <mxPoint x="620" y="230" as="targetPoint"/>
                    </mxGeometry>
                </mxCell>
                <mxCell id="M7EvmAqDSTVYz1lRvBlp-51" value="" style="endArrow=classic;startArrow=classic;html=1;rounded=0;exitX=1;exitY=0.5;exitDx=0;exitDy=0;entryX=0;entryY=0.3333333333333333;entryDx=0;entryDy=0;entryPerimeter=0;edgeStyle=entityRelationEdgeStyle;" parent="1" source="M7EvmAqDSTVYz1lRvBlp-31" target="M7EvmAqDSTVYz1lRvBlp-1" edge="1">
                    <mxGeometry width="50" height="50" relative="1" as="geometry">
                        <mxPoint x="520" y="290" as="sourcePoint"/>
                        <mxPoint x="630" y="240" as="targetPoint"/>
                    </mxGeometry>
                </mxCell>
                <mxCell id="M7EvmAqDSTVYz1lRvBlp-55" value="" style="edgeStyle=orthogonalEdgeStyle;rounded=0;orthogonalLoop=1;jettySize=auto;html=1;" parent="1" source="M7EvmAqDSTVYz1lRvBlp-53" target="M7EvmAqDSTVYz1lRvBlp-54" edge="1">
                    <mxGeometry relative="1" as="geometry"/>
                </mxCell>
                <mxCell id="M7EvmAqDSTVYz1lRvBlp-53" value="Atualizar a quantidade de algum ingrediente" style="ellipse;whiteSpace=wrap;html=1;rounded=1;" parent="1" vertex="1">
                    <mxGeometry x="920" y="-190" width="120" height="50" as="geometry"/>
                </mxCell>
                <mxCell id="M7EvmAqDSTVYz1lRvBlp-57" value="" style="edgeStyle=orthogonalEdgeStyle;rounded=0;orthogonalLoop=1;jettySize=auto;html=1;" parent="1" source="M7EvmAqDSTVYz1lRvBlp-54" target="M7EvmAqDSTVYz1lRvBlp-56" edge="1">
                    <mxGeometry relative="1" as="geometry"/>
                </mxCell>
                <mxCell id="M7EvmAqDSTVYz1lRvBlp-54" value="Pedir o tipo do motivo da mudanÃ§a:&lt;div&gt;&quot;novos ingredientes&quot;,&lt;/div&gt;&lt;div&gt;&quot;Quantidade errada&quot;&lt;/div&gt;" style="whiteSpace=wrap;html=1;rounded=1;" parent="1" vertex="1">
                    <mxGeometry x="920" y="-65" width="120" height="125" as="geometry"/>
                </mxCell>
                <mxCell id="M7EvmAqDSTVYz1lRvBlp-59" value="" style="edgeStyle=orthogonalEdgeStyle;rounded=0;orthogonalLoop=1;jettySize=auto;html=1;" parent="1" source="M7EvmAqDSTVYz1lRvBlp-56" target="M7EvmAqDSTVYz1lRvBlp-58" edge="1">
                    <mxGeometry relative="1" as="geometry"/>
                </mxCell>
                <mxCell id="M7EvmAqDSTVYz1lRvBlp-56" value="Novos ingredientes" style="rhombus;whiteSpace=wrap;html=1;rounded=1;" parent="1" vertex="1">
                    <mxGeometry x="915" y="165" width="130" height="117.5" as="geometry"/>
                </mxCell>
                <mxCell id="M7EvmAqDSTVYz1lRvBlp-61" value="" style="edgeStyle=orthogonalEdgeStyle;rounded=0;orthogonalLoop=1;jettySize=auto;html=1;" parent="1" source="M7EvmAqDSTVYz1lRvBlp-58" target="M7EvmAqDSTVYz1lRvBlp-60" edge="1">
                    <mxGeometry relative="1" as="geometry"/>
                </mxCell>
                <mxCell id="M7EvmAqDSTVYz1lRvBlp-58" value="&lt;b&gt;Requerir:&lt;/b&gt;&lt;div style=&quot;text-align: left;&quot;&gt;&lt;ul&gt;&lt;li&gt;data de chegada dos ingredientes ( prÃ© inserir a data corrente),&lt;/li&gt;&lt;li&gt;Quantidade de ingredientes,&lt;/li&gt;&lt;li&gt;Nome do ingrediente (Combo Box de preferÃªncia),&lt;/li&gt;&lt;li&gt;Data de fabricaÃ§Ã£o&lt;/li&gt;&lt;/ul&gt;&lt;div&gt;&lt;br&gt;&lt;/div&gt;&lt;/div&gt;&lt;div style=&quot;text-align: left;&quot;&gt;&lt;br&gt;&lt;/div&gt;" style="whiteSpace=wrap;html=1;rounded=1;" parent="1" vertex="1">
                    <mxGeometry x="1130" y="155.63" width="360" height="136.25" as="geometry"/>
                </mxCell>
                <mxCell id="M7EvmAqDSTVYz1lRvBlp-63" value="" style="edgeStyle=orthogonalEdgeStyle;rounded=0;orthogonalLoop=1;jettySize=auto;html=1;" parent="1" source="M7EvmAqDSTVYz1lRvBlp-60" target="M7EvmAqDSTVYz1lRvBlp-62" edge="1">
                    <mxGeometry relative="1" as="geometry"/>
                </mxCell>
                <mxCell id="M7EvmAqDSTVYz1lRvBlp-65" value="" style="edgeStyle=orthogonalEdgeStyle;rounded=0;orthogonalLoop=1;jettySize=auto;html=1;" parent="1" source="M7EvmAqDSTVYz1lRvBlp-60" target="M7EvmAqDSTVYz1lRvBlp-64" edge="1">
                    <mxGeometry relative="1" as="geometry"/>
                </mxCell>
                <mxCell id="M7EvmAqDSTVYz1lRvBlp-60" value="Produto jÃ¡ cadastrado antes" style="rhombus;whiteSpace=wrap;html=1;rounded=1;" parent="1" vertex="1">
                    <mxGeometry x="1230" y="400" width="160" height="160" as="geometry"/>
                </mxCell>
                <mxCell id="M7EvmAqDSTVYz1lRvBlp-66" style="edgeStyle=orthogonalEdgeStyle;rounded=0;orthogonalLoop=1;jettySize=auto;html=1;exitX=0.5;exitY=1;exitDx=0;exitDy=0;entryX=1;entryY=0.5;entryDx=0;entryDy=0;" parent="1" source="M7EvmAqDSTVYz1lRvBlp-62" target="M7EvmAqDSTVYz1lRvBlp-64" edge="1">
                    <mxGeometry relative="1" as="geometry"/>
                </mxCell>
                <mxCell id="M7EvmAqDSTVYz1lRvBlp-62" value="PrÃ© inserir a &lt;b&gt;Data de validade do ingrediente&lt;/b&gt;;&lt;div&gt;De acordo com a validade do Ãºltimo produto&lt;/div&gt;" style="whiteSpace=wrap;html=1;rounded=1;" parent="1" vertex="1">
                    <mxGeometry x="1500" y="425" width="250" height="110" as="geometry"/>
                </mxCell>
                <mxCell id="M7EvmAqDSTVYz1lRvBlp-69" style="edgeStyle=orthogonalEdgeStyle;rounded=0;orthogonalLoop=1;jettySize=auto;html=1;exitX=0.5;exitY=1;exitDx=0;exitDy=0;entryX=0.5;entryY=0;entryDx=0;entryDy=0;" parent="1" source="M7EvmAqDSTVYz1lRvBlp-64" target="M7EvmAqDSTVYz1lRvBlp-68" edge="1">
                    <mxGeometry relative="1" as="geometry"/>
                </mxCell>
                <mxCell id="M7EvmAqDSTVYz1lRvBlp-64" value="Cadastrar" style="whiteSpace=wrap;html=1;rounded=1;" parent="1" vertex="1">
                    <mxGeometry x="1250" y="690" width="120" height="60" as="geometry"/>
                </mxCell>
                <mxCell id="M7EvmAqDSTVYz1lRvBlp-68" value="" style="ellipse;html=1;shape=endState;fillColor=#000000;strokeColor=#ff0000;" parent="1" vertex="1">
                    <mxGeometry x="1295" y="770" width="30" height="30" as="geometry"/>
                </mxCell>
                <mxCell id="M7EvmAqDSTVYz1lRvBlp-72" value="" style="edgeStyle=orthogonalEdgeStyle;rounded=0;orthogonalLoop=1;jettySize=auto;html=1;" parent="1" source="M7EvmAqDSTVYz1lRvBlp-70" target="M7EvmAqDSTVYz1lRvBlp-71" edge="1">
                    <mxGeometry relative="1" as="geometry"/>
                </mxCell>
                <mxCell id="M7EvmAqDSTVYz1lRvBlp-70" value="Criar Pedido para entrega" style="ellipse;whiteSpace=wrap;html=1;" parent="1" vertex="1">
                    <mxGeometry x="2190" y="-205" width="120" height="80" as="geometry"/>
                </mxCell>
                <mxCell id="M7EvmAqDSTVYz1lRvBlp-74" value="" style="edgeStyle=orthogonalEdgeStyle;rounded=0;orthogonalLoop=1;jettySize=auto;html=1;" parent="1" source="M7EvmAqDSTVYz1lRvBlp-71" target="M7EvmAqDSTVYz1lRvBlp-73" edge="1">
                    <mxGeometry relative="1" as="geometry"/>
                </mxCell>
                <mxCell id="M7EvmAqDSTVYz1lRvBlp-71" value="Informar os produtos a serem comprados" style="whiteSpace=wrap;html=1;" parent="1" vertex="1">
                    <mxGeometry x="2190" y="-35" width="120" height="60" as="geometry"/>
                </mxCell>
                <mxCell id="M7EvmAqDSTVYz1lRvBlp-76" value="" style="edgeStyle=orthogonalEdgeStyle;rounded=0;orthogonalLoop=1;jettySize=auto;html=1;entryX=0.5;entryY=0;entryDx=0;entryDy=0;" parent="1" source="M7EvmAqDSTVYz1lRvBlp-73" target="M7EvmAqDSTVYz1lRvBlp-77" edge="1">
                    <mxGeometry relative="1" as="geometry">
                        <mxPoint x="2250" y="245" as="targetPoint"/>
                    </mxGeometry>
                </mxCell>
                <mxCell id="M7EvmAqDSTVYz1lRvBlp-73" value="Meio de pagamento escolhido pelo cliente&lt;div&gt;&lt;br&gt;&lt;/div&gt;&lt;div&gt;(de acordo com os tipos existentes no BD)&lt;br&gt;&lt;/div&gt;" style="whiteSpace=wrap;html=1;" parent="1" vertex="1">
                    <mxGeometry x="2190" y="50" width="120" height="115" as="geometry"/>
                </mxCell>
                <mxCell id="M7EvmAqDSTVYz1lRvBlp-79" value="" style="edgeStyle=orthogonalEdgeStyle;rounded=0;orthogonalLoop=1;jettySize=auto;html=1;" parent="1" source="M7EvmAqDSTVYz1lRvBlp-77" target="M7EvmAqDSTVYz1lRvBlp-78" edge="1">
                    <mxGeometry relative="1" as="geometry"/>
                </mxCell>
                <mxCell id="M7EvmAqDSTVYz1lRvBlp-77" value="Produtos pagos" style="ellipse;whiteSpace=wrap;html=1;" parent="1" vertex="1">
                    <mxGeometry x="2190" y="250" width="120" height="80" as="geometry"/>
                </mxCell>
                <mxCell id="M7EvmAqDSTVYz1lRvBlp-78" value="" style="ellipse;html=1;shape=endState;fillColor=#000000;strokeColor=#ff0000;" parent="1" vertex="1">
                    <mxGeometry x="2235" y="385" width="30" height="30" as="geometry"/>
                </mxCell>
                <mxCell id="M7EvmAqDSTVYz1lRvBlp-82" value="" style="edgeStyle=orthogonalEdgeStyle;rounded=0;orthogonalLoop=1;jettySize=auto;html=1;" parent="1" source="M7EvmAqDSTVYz1lRvBlp-80" target="M7EvmAqDSTVYz1lRvBlp-81" edge="1">
                    <mxGeometry relative="1" as="geometry"/>
                </mxCell>
                <mxCell id="M7EvmAqDSTVYz1lRvBlp-80" value="Pagamento do Pedido" style="ellipse;whiteSpace=wrap;html=1;" parent="1" vertex="1">
                    <mxGeometry x="2580" y="-205" width="120" height="80" as="geometry"/>
                </mxCell>
                <mxCell id="M7EvmAqDSTVYz1lRvBlp-86" value="" style="edgeStyle=orthogonalEdgeStyle;rounded=0;orthogonalLoop=1;jettySize=auto;html=1;" parent="1" source="M7EvmAqDSTVYz1lRvBlp-81" target="M7EvmAqDSTVYz1lRvBlp-85" edge="1">
                    <mxGeometry relative="1" as="geometry"/>
                </mxCell>
                <mxCell id="M7EvmAqDSTVYz1lRvBlp-81" value="Meio de pagamento (de acordo com os tipos existentes no BD)" style="whiteSpace=wrap;html=1;" parent="1" vertex="1">
                    <mxGeometry x="2580" y="-35" width="120" height="60" as="geometry"/>
                </mxCell>
                <mxCell id="M7EvmAqDSTVYz1lRvBlp-88" value="" style="edgeStyle=orthogonalEdgeStyle;rounded=0;orthogonalLoop=1;jettySize=auto;html=1;" parent="1" source="M7EvmAqDSTVYz1lRvBlp-85" target="M7EvmAqDSTVYz1lRvBlp-87" edge="1">
                    <mxGeometry relative="1" as="geometry"/>
                </mxCell>
                <mxCell id="M7EvmAqDSTVYz1lRvBlp-90" value="" style="edgeStyle=orthogonalEdgeStyle;rounded=0;orthogonalLoop=1;jettySize=auto;html=1;" parent="1" source="M7EvmAqDSTVYz1lRvBlp-85" target="M7EvmAqDSTVYz1lRvBlp-89" edge="1">
                    <mxGeometry relative="1" as="geometry"/>
                </mxCell>
                <mxCell id="M7EvmAqDSTVYz1lRvBlp-85" value="Pagamento Efetuado" style="rhombus;whiteSpace=wrap;html=1;" parent="1" vertex="1">
                    <mxGeometry x="2600" y="95" width="80" height="80" as="geometry"/>
                </mxCell>
                <mxCell id="M7EvmAqDSTVYz1lRvBlp-94" value="" style="edgeStyle=orthogonalEdgeStyle;rounded=0;orthogonalLoop=1;jettySize=auto;html=1;" parent="1" source="M7EvmAqDSTVYz1lRvBlp-87" target="M7EvmAqDSTVYz1lRvBlp-93" edge="1">
                    <mxGeometry relative="1" as="geometry"/>
                </mxCell>
                <mxCell id="M7EvmAqDSTVYz1lRvBlp-87" value="Debitar no Banco de dados os produtos comprados e atualizar a lista de ingredientes que os pedidos gastaram" style="whiteSpace=wrap;html=1;" parent="1" vertex="1">
                    <mxGeometry x="2740" y="72.5" width="120" height="125" as="geometry"/>
                </mxCell>
                <mxCell id="M7EvmAqDSTVYz1lRvBlp-92" value="" style="edgeStyle=orthogonalEdgeStyle;rounded=0;orthogonalLoop=1;jettySize=auto;html=1;" parent="1" source="M7EvmAqDSTVYz1lRvBlp-89" target="M7EvmAqDSTVYz1lRvBlp-91" edge="1">
                    <mxGeometry relative="1" as="geometry"/>
                </mxCell>
                <mxCell id="M7EvmAqDSTVYz1lRvBlp-89" value="Mensagem de &quot;Que Pena que aconteceu isto ) - :&quot;" style="whiteSpace=wrap;html=1;" parent="1" vertex="1">
                    <mxGeometry x="2580" y="265" width="120" height="60" as="geometry"/>
                </mxCell>
                <mxCell id="M7EvmAqDSTVYz1lRvBlp-91" value="" style="ellipse;html=1;shape=endState;fillColor=#000000;strokeColor=#ff0000;" parent="1" vertex="1">
                    <mxGeometry x="2625" y="355" width="30" height="30" as="geometry"/>
                </mxCell>
                <mxCell id="M7EvmAqDSTVYz1lRvBlp-95" value="" style="edgeStyle=orthogonalEdgeStyle;rounded=0;orthogonalLoop=1;jettySize=auto;html=1;" parent="1" source="M7EvmAqDSTVYz1lRvBlp-93" target="M7EvmAqDSTVYz1lRvBlp-91" edge="1">
                    <mxGeometry relative="1" as="geometry"/>
                </mxCell>
                <mxCell id="M7EvmAqDSTVYz1lRvBlp-93" value="Mensagem de Sucesso: &quot;Compra efetuada!&quot;" style="whiteSpace=wrap;html=1;" parent="1" vertex="1">
                    <mxGeometry x="2740" y="340" width="120" height="60" as="geometry"/>
                </mxCell>
            </root>
        </mxGraphModel>
    </diagram>
    <diagram id="sCVAKuuVEUGBT5gat4zx" name="ENTIDADE RELACIONAMENTO">
        <mxGraphModel dx="1571" dy="1230" grid="1" gridSize="10" guides="1" tooltips="1" connect="1" arrows="1" fold="1" page="0" pageScale="1" pageWidth="827" pageHeight="1169" math="0" shadow="0">
            <root>
                <mxCell id="0"/>
                <mxCell id="1" parent="0"/>
                <mxCell id="r1jwhHq4SSXFKDM6d8iw-1" value="Usuarios" style="shape=table;startSize=30;container=1;collapsible=1;childLayout=tableLayout;fixedRows=1;rowLines=0;fontStyle=1;align=center;resizeLast=1;fillColor=default;" parent="1" vertex="1">
                    <mxGeometry x="-170" y="-110" width="371" height="150" as="geometry"/>
                </mxCell>
                <mxCell id="r1jwhHq4SSXFKDM6d8iw-2" value="" style="shape=tableRow;horizontal=0;startSize=0;swimlaneHead=0;swimlaneBody=0;fillColor=none;collapsible=0;dropTarget=0;points=[[0,0.5],[1,0.5]];portConstraint=eastwest;top=0;left=0;right=0;bottom=1;" parent="r1jwhHq4SSXFKDM6d8iw-1" vertex="1">
                    <mxGeometry y="30" width="371" height="30" as="geometry"/>
                </mxCell>
                <mxCell id="r1jwhHq4SSXFKDM6d8iw-3" value="PK" style="shape=partialRectangle;connectable=0;fillColor=none;top=0;left=0;bottom=0;right=0;fontStyle=1;overflow=hidden;" parent="r1jwhHq4SSXFKDM6d8iw-2" vertex="1">
                    <mxGeometry width="150" height="30" as="geometry">
                        <mxRectangle width="150" height="30" as="alternateBounds"/>
                    </mxGeometry>
                </mxCell>
                <mxCell id="r1jwhHq4SSXFKDM6d8iw-4" value="ID" style="shape=partialRectangle;connectable=0;fillColor=none;top=0;left=0;bottom=0;right=0;align=left;spacingLeft=6;fontStyle=5;overflow=hidden;" parent="r1jwhHq4SSXFKDM6d8iw-2" vertex="1">
                    <mxGeometry x="150" width="221" height="30" as="geometry">
                        <mxRectangle width="221" height="30" as="alternateBounds"/>
                    </mxGeometry>
                </mxCell>
                <mxCell id="r1jwhHq4SSXFKDM6d8iw-5" value="" style="shape=tableRow;horizontal=0;startSize=0;swimlaneHead=0;swimlaneBody=0;fillColor=none;collapsible=0;dropTarget=0;points=[[0,0.5],[1,0.5]];portConstraint=eastwest;top=0;left=0;right=0;bottom=0;" parent="r1jwhHq4SSXFKDM6d8iw-1" vertex="1">
                    <mxGeometry y="60" width="371" height="30" as="geometry"/>
                </mxCell>
                <mxCell id="r1jwhHq4SSXFKDM6d8iw-6" value="INDEX" style="shape=partialRectangle;connectable=0;fillColor=none;top=0;left=0;bottom=0;right=0;editable=1;overflow=hidden;" parent="r1jwhHq4SSXFKDM6d8iw-5" vertex="1">
                    <mxGeometry width="150" height="30" as="geometry">
                        <mxRectangle width="150" height="30" as="alternateBounds"/>
                    </mxGeometry>
                </mxCell>
                <mxCell id="r1jwhHq4SSXFKDM6d8iw-7" value="Nome VARCHAR(80)" style="shape=partialRectangle;connectable=0;fillColor=none;top=0;left=0;bottom=0;right=0;align=left;spacingLeft=6;overflow=hidden;" parent="r1jwhHq4SSXFKDM6d8iw-5" vertex="1">
                    <mxGeometry x="150" width="221" height="30" as="geometry">
                        <mxRectangle width="221" height="30" as="alternateBounds"/>
                    </mxGeometry>
                </mxCell>
                <mxCell id="r1jwhHq4SSXFKDM6d8iw-8" value="" style="shape=tableRow;horizontal=0;startSize=0;swimlaneHead=0;swimlaneBody=0;fillColor=none;collapsible=0;dropTarget=0;points=[[0,0.5],[1,0.5]];portConstraint=eastwest;top=0;left=0;right=0;bottom=0;" parent="r1jwhHq4SSXFKDM6d8iw-1" vertex="1">
                    <mxGeometry y="90" width="371" height="30" as="geometry"/>
                </mxCell>
                <mxCell id="r1jwhHq4SSXFKDM6d8iw-9" value="" style="shape=partialRectangle;connectable=0;fillColor=none;top=0;left=0;bottom=0;right=0;editable=1;overflow=hidden;" parent="r1jwhHq4SSXFKDM6d8iw-8" vertex="1">
                    <mxGeometry width="150" height="30" as="geometry">
                        <mxRectangle width="150" height="30" as="alternateBounds"/>
                    </mxGeometry>
                </mxCell>
                <mxCell id="r1jwhHq4SSXFKDM6d8iw-10" value="Senha VARCHAR(255)" style="shape=partialRectangle;connectable=0;fillColor=none;top=0;left=0;bottom=0;right=0;align=left;spacingLeft=6;overflow=hidden;" parent="r1jwhHq4SSXFKDM6d8iw-8" vertex="1">
                    <mxGeometry x="150" width="221" height="30" as="geometry">
                        <mxRectangle width="221" height="30" as="alternateBounds"/>
                    </mxGeometry>
                </mxCell>
                <mxCell id="r1jwhHq4SSXFKDM6d8iw-11" value="" style="shape=tableRow;horizontal=0;startSize=0;swimlaneHead=0;swimlaneBody=0;fillColor=none;collapsible=0;dropTarget=0;points=[[0,0.5],[1,0.5]];portConstraint=eastwest;top=0;left=0;right=0;bottom=0;" parent="r1jwhHq4SSXFKDM6d8iw-1" vertex="1">
                    <mxGeometry y="120" width="371" height="30" as="geometry"/>
                </mxCell>
                <mxCell id="r1jwhHq4SSXFKDM6d8iw-12" value="FK(NIVEIS_ACESSO)" style="shape=partialRectangle;connectable=0;fillColor=none;top=0;left=0;bottom=0;right=0;editable=1;overflow=hidden;" parent="r1jwhHq4SSXFKDM6d8iw-11" vertex="1">
                    <mxGeometry width="150" height="30" as="geometry">
                        <mxRectangle width="150" height="30" as="alternateBounds"/>
                    </mxGeometry>
                </mxCell>
                <mxCell id="r1jwhHq4SSXFKDM6d8iw-13" value="Nivel de acesso INT" style="shape=partialRectangle;connectable=0;fillColor=none;top=0;left=0;bottom=0;right=0;align=left;spacingLeft=6;overflow=hidden;" parent="r1jwhHq4SSXFKDM6d8iw-11" vertex="1">
                    <mxGeometry x="150" width="221" height="30" as="geometry">
                        <mxRectangle width="221" height="30" as="alternateBounds"/>
                    </mxGeometry>
                </mxCell>
                <mxCell id="r1jwhHq4SSXFKDM6d8iw-14" value="TIPO_ACESSO" style="shape=table;startSize=30;container=1;collapsible=1;childLayout=tableLayout;fixedRows=1;rowLines=0;fontStyle=1;align=center;resizeLast=1;fillColor=default;" parent="1" vertex="1">
                    <mxGeometry x="-220" y="360" width="360" height="150.0000000000001" as="geometry"/>
                </mxCell>
                <mxCell id="r1jwhHq4SSXFKDM6d8iw-15" value="" style="shape=tableRow;horizontal=0;startSize=0;swimlaneHead=0;swimlaneBody=0;fillColor=none;collapsible=0;dropTarget=0;points=[[0,0.5],[1,0.5]];portConstraint=eastwest;top=0;left=0;right=0;bottom=1;" parent="r1jwhHq4SSXFKDM6d8iw-14" vertex="1">
                    <mxGeometry y="30" width="360" height="30" as="geometry"/>
                </mxCell>
                <mxCell id="r1jwhHq4SSXFKDM6d8iw-16" value="PK" style="shape=partialRectangle;connectable=0;fillColor=none;top=0;left=0;bottom=0;right=0;fontStyle=1;overflow=hidden;" parent="r1jwhHq4SSXFKDM6d8iw-15" vertex="1">
                    <mxGeometry width="110" height="30" as="geometry">
                        <mxRectangle width="110" height="30" as="alternateBounds"/>
                    </mxGeometry>
                </mxCell>
                <mxCell id="r1jwhHq4SSXFKDM6d8iw-17" value="ID" style="shape=partialRectangle;connectable=0;fillColor=none;top=0;left=0;bottom=0;right=0;align=left;spacingLeft=6;fontStyle=5;overflow=hidden;" parent="r1jwhHq4SSXFKDM6d8iw-15" vertex="1">
                    <mxGeometry x="110" width="250" height="30" as="geometry">
                        <mxRectangle width="250" height="30" as="alternateBounds"/>
                    </mxGeometry>
                </mxCell>
                <mxCell id="r1jwhHq4SSXFKDM6d8iw-18" value="" style="shape=tableRow;horizontal=0;startSize=0;swimlaneHead=0;swimlaneBody=0;fillColor=none;collapsible=0;dropTarget=0;points=[[0,0.5],[1,0.5]];portConstraint=eastwest;top=0;left=0;right=0;bottom=0;" parent="r1jwhHq4SSXFKDM6d8iw-14" vertex="1">
                    <mxGeometry y="60" width="360" height="30" as="geometry"/>
                </mxCell>
                <mxCell id="r1jwhHq4SSXFKDM6d8iw-19" value="" style="shape=partialRectangle;connectable=0;fillColor=none;top=0;left=0;bottom=0;right=0;editable=1;overflow=hidden;" parent="r1jwhHq4SSXFKDM6d8iw-18" vertex="1">
                    <mxGeometry width="110" height="30" as="geometry">
                        <mxRectangle width="110" height="30" as="alternateBounds"/>
                    </mxGeometry>
                </mxCell>
                <mxCell id="r1jwhHq4SSXFKDM6d8iw-20" value="Nome" style="shape=partialRectangle;connectable=0;fillColor=none;top=0;left=0;bottom=0;right=0;align=left;spacingLeft=6;overflow=hidden;" parent="r1jwhHq4SSXFKDM6d8iw-18" vertex="1">
                    <mxGeometry x="110" width="250" height="30" as="geometry">
                        <mxRectangle width="250" height="30" as="alternateBounds"/>
                    </mxGeometry>
                </mxCell>
                <mxCell id="r1jwhHq4SSXFKDM6d8iw-21" value="" style="shape=tableRow;horizontal=0;startSize=0;swimlaneHead=0;swimlaneBody=0;fillColor=none;collapsible=0;dropTarget=0;points=[[0,0.5],[1,0.5]];portConstraint=eastwest;top=0;left=0;right=0;bottom=0;" parent="r1jwhHq4SSXFKDM6d8iw-14" vertex="1">
                    <mxGeometry y="90" width="360" height="30" as="geometry"/>
                </mxCell>
                <mxCell id="r1jwhHq4SSXFKDM6d8iw-22" value="ENUMERATE" style="shape=partialRectangle;connectable=0;fillColor=none;top=0;left=0;bottom=0;right=0;editable=1;overflow=hidden;" parent="r1jwhHq4SSXFKDM6d8iw-21" vertex="1">
                    <mxGeometry width="110" height="30" as="geometry">
                        <mxRectangle width="110" height="30" as="alternateBounds"/>
                    </mxGeometry>
                </mxCell>
                <mxCell id="r1jwhHq4SSXFKDM6d8iw-23" value="TIPO_ACESSO_ID INT" style="shape=partialRectangle;connectable=0;fillColor=none;top=0;left=0;bottom=0;right=0;align=left;spacingLeft=6;overflow=hidden;" parent="r1jwhHq4SSXFKDM6d8iw-21" vertex="1">
                    <mxGeometry x="110" width="250" height="30" as="geometry">
                        <mxRectangle width="250" height="30" as="alternateBounds"/>
                    </mxGeometry>
                </mxCell>
                <mxCell id="r1jwhHq4SSXFKDM6d8iw-24" value="" style="shape=tableRow;horizontal=0;startSize=0;swimlaneHead=0;swimlaneBody=0;fillColor=none;collapsible=0;dropTarget=0;points=[[0,0.5],[1,0.5]];portConstraint=eastwest;top=0;left=0;right=0;bottom=0;" parent="r1jwhHq4SSXFKDM6d8iw-14" vertex="1">
                    <mxGeometry y="120" width="360" height="30" as="geometry"/>
                </mxCell>
                <mxCell id="r1jwhHq4SSXFKDM6d8iw-25" value="" style="shape=partialRectangle;connectable=0;fillColor=none;top=0;left=0;bottom=0;right=0;editable=1;overflow=hidden;" parent="r1jwhHq4SSXFKDM6d8iw-24" vertex="1">
                    <mxGeometry width="110" height="30" as="geometry">
                        <mxRectangle width="110" height="30" as="alternateBounds"/>
                    </mxGeometry>
                </mxCell>
                <mxCell id="r1jwhHq4SSXFKDM6d8iw-26" value="" style="shape=partialRectangle;connectable=0;fillColor=none;top=0;left=0;bottom=0;right=0;align=left;spacingLeft=6;overflow=hidden;" parent="r1jwhHq4SSXFKDM6d8iw-24" vertex="1">
                    <mxGeometry x="110" width="250" height="30" as="geometry">
                        <mxRectangle width="250" height="30" as="alternateBounds"/>
                    </mxGeometry>
                </mxCell>
                <mxCell id="r1jwhHq4SSXFKDM6d8iw-27" value="NIVEL_ACESSO" style="shape=table;startSize=30;container=1;collapsible=1;childLayout=tableLayout;fixedRows=1;rowLines=0;fontStyle=1;align=center;resizeLast=1;fillColor=default;" parent="1" vertex="1">
                    <mxGeometry x="-170" y="140" width="180" height="150" as="geometry"/>
                </mxCell>
                <mxCell id="r1jwhHq4SSXFKDM6d8iw-28" value="" style="shape=tableRow;horizontal=0;startSize=0;swimlaneHead=0;swimlaneBody=0;fillColor=none;collapsible=0;dropTarget=0;points=[[0,0.5],[1,0.5]];portConstraint=eastwest;top=0;left=0;right=0;bottom=1;" parent="r1jwhHq4SSXFKDM6d8iw-27" vertex="1">
                    <mxGeometry y="30" width="180" height="30" as="geometry"/>
                </mxCell>
                <mxCell id="r1jwhHq4SSXFKDM6d8iw-29" value="PK" style="shape=partialRectangle;connectable=0;fillColor=none;top=0;left=0;bottom=0;right=0;fontStyle=1;overflow=hidden;" parent="r1jwhHq4SSXFKDM6d8iw-28" vertex="1">
                    <mxGeometry width="30" height="30" as="geometry">
                        <mxRectangle width="30" height="30" as="alternateBounds"/>
                    </mxGeometry>
                </mxCell>
                <mxCell id="r1jwhHq4SSXFKDM6d8iw-30" value="ID" style="shape=partialRectangle;connectable=0;fillColor=none;top=0;left=0;bottom=0;right=0;align=left;spacingLeft=6;fontStyle=5;overflow=hidden;" parent="r1jwhHq4SSXFKDM6d8iw-28" vertex="1">
                    <mxGeometry x="30" width="150" height="30" as="geometry">
                        <mxRectangle width="150" height="30" as="alternateBounds"/>
                    </mxGeometry>
                </mxCell>
                <mxCell id="r1jwhHq4SSXFKDM6d8iw-31" value="" style="shape=tableRow;horizontal=0;startSize=0;swimlaneHead=0;swimlaneBody=0;fillColor=none;collapsible=0;dropTarget=0;points=[[0,0.5],[1,0.5]];portConstraint=eastwest;top=0;left=0;right=0;bottom=0;" parent="r1jwhHq4SSXFKDM6d8iw-27" vertex="1">
                    <mxGeometry y="60" width="180" height="30" as="geometry"/>
                </mxCell>
                <mxCell id="r1jwhHq4SSXFKDM6d8iw-32" value="" style="shape=partialRectangle;connectable=0;fillColor=none;top=0;left=0;bottom=0;right=0;editable=1;overflow=hidden;" parent="r1jwhHq4SSXFKDM6d8iw-31" vertex="1">
                    <mxGeometry width="30" height="30" as="geometry">
                        <mxRectangle width="30" height="30" as="alternateBounds"/>
                    </mxGeometry>
                </mxCell>
                <mxCell id="r1jwhHq4SSXFKDM6d8iw-33" value="Nome" style="shape=partialRectangle;connectable=0;fillColor=none;top=0;left=0;bottom=0;right=0;align=left;spacingLeft=6;overflow=hidden;" parent="r1jwhHq4SSXFKDM6d8iw-31" vertex="1">
                    <mxGeometry x="30" width="150" height="30" as="geometry">
                        <mxRectangle width="150" height="30" as="alternateBounds"/>
                    </mxGeometry>
                </mxCell>
                <mxCell id="r1jwhHq4SSXFKDM6d8iw-34" value="" style="shape=tableRow;horizontal=0;startSize=0;swimlaneHead=0;swimlaneBody=0;fillColor=none;collapsible=0;dropTarget=0;points=[[0,0.5],[1,0.5]];portConstraint=eastwest;top=0;left=0;right=0;bottom=0;" parent="r1jwhHq4SSXFKDM6d8iw-27" vertex="1">
                    <mxGeometry y="90" width="180" height="30" as="geometry"/>
                </mxCell>
                <mxCell id="r1jwhHq4SSXFKDM6d8iw-35" value="" style="shape=partialRectangle;connectable=0;fillColor=none;top=0;left=0;bottom=0;right=0;editable=1;overflow=hidden;" parent="r1jwhHq4SSXFKDM6d8iw-34" vertex="1">
                    <mxGeometry width="30" height="30" as="geometry">
                        <mxRectangle width="30" height="30" as="alternateBounds"/>
                    </mxGeometry>
                </mxCell>
                <mxCell id="r1jwhHq4SSXFKDM6d8iw-36" value="TIPO_ACESSO_ID" style="shape=partialRectangle;connectable=0;fillColor=none;top=0;left=0;bottom=0;right=0;align=left;spacingLeft=6;overflow=hidden;" parent="r1jwhHq4SSXFKDM6d8iw-34" vertex="1">
                    <mxGeometry x="30" width="150" height="30" as="geometry">
                        <mxRectangle width="150" height="30" as="alternateBounds"/>
                    </mxGeometry>
                </mxCell>
                <mxCell id="r1jwhHq4SSXFKDM6d8iw-37" value="" style="shape=tableRow;horizontal=0;startSize=0;swimlaneHead=0;swimlaneBody=0;fillColor=none;collapsible=0;dropTarget=0;points=[[0,0.5],[1,0.5]];portConstraint=eastwest;top=0;left=0;right=0;bottom=0;" parent="r1jwhHq4SSXFKDM6d8iw-27" vertex="1">
                    <mxGeometry y="120" width="180" height="30" as="geometry"/>
                </mxCell>
                <mxCell id="r1jwhHq4SSXFKDM6d8iw-38" value="" style="shape=partialRectangle;connectable=0;fillColor=none;top=0;left=0;bottom=0;right=0;editable=1;overflow=hidden;" parent="r1jwhHq4SSXFKDM6d8iw-37" vertex="1">
                    <mxGeometry width="30" height="30" as="geometry">
                        <mxRectangle width="30" height="30" as="alternateBounds"/>
                    </mxGeometry>
                </mxCell>
                <mxCell id="r1jwhHq4SSXFKDM6d8iw-39" value="Row 3" style="shape=partialRectangle;connectable=0;fillColor=none;top=0;left=0;bottom=0;right=0;align=left;spacingLeft=6;overflow=hidden;" parent="r1jwhHq4SSXFKDM6d8iw-37" vertex="1">
                    <mxGeometry x="30" width="150" height="30" as="geometry">
                        <mxRectangle width="150" height="30" as="alternateBounds"/>
                    </mxGeometry>
                </mxCell>
                <mxCell id="r1jwhHq4SSXFKDM6d8iw-40" value="" style="edgeStyle=entityRelationEdgeStyle;fontSize=12;html=1;endArrow=ERzeroToMany;endFill=1;entryX=1;entryY=0.5;entryDx=0;entryDy=0;" parent="1" source="r1jwhHq4SSXFKDM6d8iw-11" target="r1jwhHq4SSXFKDM6d8iw-28" edge="1">
                    <mxGeometry width="100" height="100" relative="1" as="geometry">
                        <mxPoint x="-70" y="450" as="sourcePoint"/>
                        <mxPoint x="30" y="350" as="targetPoint"/>
                    </mxGeometry>
                </mxCell>
                <mxCell id="r1jwhHq4SSXFKDM6d8iw-41" value="INGREDIENTES" style="shape=table;startSize=30;container=1;collapsible=1;childLayout=tableLayout;fixedRows=1;rowLines=0;fontStyle=1;align=center;resizeLast=1;fillColor=default;" parent="1" vertex="1">
                    <mxGeometry x="1020" y="330" width="350" height="150" as="geometry"/>
                </mxCell>
                <mxCell id="r1jwhHq4SSXFKDM6d8iw-42" value="" style="shape=tableRow;horizontal=0;startSize=0;swimlaneHead=0;swimlaneBody=0;fillColor=none;collapsible=0;dropTarget=0;points=[[0,0.5],[1,0.5]];portConstraint=eastwest;top=0;left=0;right=0;bottom=1;" parent="r1jwhHq4SSXFKDM6d8iw-41" vertex="1">
                    <mxGeometry y="30" width="350" height="30" as="geometry"/>
                </mxCell>
                <mxCell id="r1jwhHq4SSXFKDM6d8iw-43" value="PK" style="shape=partialRectangle;connectable=0;fillColor=none;top=0;left=0;bottom=0;right=0;fontStyle=1;overflow=hidden;" parent="r1jwhHq4SSXFKDM6d8iw-42" vertex="1">
                    <mxGeometry width="30" height="30" as="geometry">
                        <mxRectangle width="30" height="30" as="alternateBounds"/>
                    </mxGeometry>
                </mxCell>
                <mxCell id="r1jwhHq4SSXFKDM6d8iw-44" value="ID" style="shape=partialRectangle;connectable=0;fillColor=none;top=0;left=0;bottom=0;right=0;align=left;spacingLeft=6;fontStyle=5;overflow=hidden;" parent="r1jwhHq4SSXFKDM6d8iw-42" vertex="1">
                    <mxGeometry x="30" width="320" height="30" as="geometry">
                        <mxRectangle width="320" height="30" as="alternateBounds"/>
                    </mxGeometry>
                </mxCell>
                <mxCell id="r1jwhHq4SSXFKDM6d8iw-45" value="" style="shape=tableRow;horizontal=0;startSize=0;swimlaneHead=0;swimlaneBody=0;fillColor=none;collapsible=0;dropTarget=0;points=[[0,0.5],[1,0.5]];portConstraint=eastwest;top=0;left=0;right=0;bottom=0;" parent="r1jwhHq4SSXFKDM6d8iw-41" vertex="1">
                    <mxGeometry y="60" width="350" height="30" as="geometry"/>
                </mxCell>
                <mxCell id="r1jwhHq4SSXFKDM6d8iw-46" value="" style="shape=partialRectangle;connectable=0;fillColor=none;top=0;left=0;bottom=0;right=0;editable=1;overflow=hidden;" parent="r1jwhHq4SSXFKDM6d8iw-45" vertex="1">
                    <mxGeometry width="30" height="30" as="geometry">
                        <mxRectangle width="30" height="30" as="alternateBounds"/>
                    </mxGeometry>
                </mxCell>
                <mxCell id="r1jwhHq4SSXFKDM6d8iw-47" value="NOME" style="shape=partialRectangle;connectable=0;fillColor=none;top=0;left=0;bottom=0;right=0;align=left;spacingLeft=6;overflow=hidden;" parent="r1jwhHq4SSXFKDM6d8iw-45" vertex="1">
                    <mxGeometry x="30" width="320" height="30" as="geometry">
                        <mxRectangle width="320" height="30" as="alternateBounds"/>
                    </mxGeometry>
                </mxCell>
                <mxCell id="r1jwhHq4SSXFKDM6d8iw-48" value="" style="shape=tableRow;horizontal=0;startSize=0;swimlaneHead=0;swimlaneBody=0;fillColor=none;collapsible=0;dropTarget=0;points=[[0,0.5],[1,0.5]];portConstraint=eastwest;top=0;left=0;right=0;bottom=0;" parent="r1jwhHq4SSXFKDM6d8iw-41" vertex="1">
                    <mxGeometry y="90" width="350" height="30" as="geometry"/>
                </mxCell>
                <mxCell id="r1jwhHq4SSXFKDM6d8iw-49" value="" style="shape=partialRectangle;connectable=0;fillColor=none;top=0;left=0;bottom=0;right=0;editable=1;overflow=hidden;" parent="r1jwhHq4SSXFKDM6d8iw-48" vertex="1">
                    <mxGeometry width="30" height="30" as="geometry">
                        <mxRectangle width="30" height="30" as="alternateBounds"/>
                    </mxGeometry>
                </mxCell>
                <mxCell id="r1jwhHq4SSXFKDM6d8iw-50" value="DATA_VALIDADE_PADRÃO INT (QTD_DIAS)" style="shape=partialRectangle;connectable=0;fillColor=none;top=0;left=0;bottom=0;right=0;align=left;spacingLeft=6;overflow=hidden;" parent="r1jwhHq4SSXFKDM6d8iw-48" vertex="1">
                    <mxGeometry x="30" width="320" height="30" as="geometry">
                        <mxRectangle width="320" height="30" as="alternateBounds"/>
                    </mxGeometry>
                </mxCell>
                <mxCell id="r1jwhHq4SSXFKDM6d8iw-51" value="" style="shape=tableRow;horizontal=0;startSize=0;swimlaneHead=0;swimlaneBody=0;fillColor=none;collapsible=0;dropTarget=0;points=[[0,0.5],[1,0.5]];portConstraint=eastwest;top=0;left=0;right=0;bottom=0;" parent="r1jwhHq4SSXFKDM6d8iw-41" vertex="1">
                    <mxGeometry y="120" width="350" height="30" as="geometry"/>
                </mxCell>
                <mxCell id="r1jwhHq4SSXFKDM6d8iw-52" value="" style="shape=partialRectangle;connectable=0;fillColor=none;top=0;left=0;bottom=0;right=0;editable=1;overflow=hidden;" parent="r1jwhHq4SSXFKDM6d8iw-51" vertex="1">
                    <mxGeometry width="30" height="30" as="geometry">
                        <mxRectangle width="30" height="30" as="alternateBounds"/>
                    </mxGeometry>
                </mxCell>
                <mxCell id="r1jwhHq4SSXFKDM6d8iw-53" value="" style="shape=partialRectangle;connectable=0;fillColor=none;top=0;left=0;bottom=0;right=0;align=left;spacingLeft=6;overflow=hidden;" parent="r1jwhHq4SSXFKDM6d8iw-51" vertex="1">
                    <mxGeometry x="30" width="320" height="30" as="geometry">
                        <mxRectangle width="320" height="30" as="alternateBounds"/>
                    </mxGeometry>
                </mxCell>
                <mxCell id="r1jwhHq4SSXFKDM6d8iw-54" value="PEDIDOS" style="ellipse;whiteSpace=wrap;html=1;align=center;fillColor=default;" parent="1" vertex="1">
                    <mxGeometry x="340" y="350" width="180" height="40" as="geometry"/>
                </mxCell>
                <mxCell id="r1jwhHq4SSXFKDM6d8iw-55" style="edgeStyle=entityRelationEdgeStyle;html=1;exitX=1;exitY=0.5;exitDx=0;exitDy=0;entryX=0;entryY=0.5;entryDx=0;entryDy=0;" parent="1" source="r1jwhHq4SSXFKDM6d8iw-18" target="r1jwhHq4SSXFKDM6d8iw-54" edge="1">
                    <mxGeometry relative="1" as="geometry"/>
                </mxCell>
                <mxCell id="r1jwhHq4SSXFKDM6d8iw-56" value="PRODUTOS" style="ellipse;whiteSpace=wrap;html=1;align=center;fillColor=default;" parent="1" vertex="1">
                    <mxGeometry x="340" y="400" width="100" height="40" as="geometry"/>
                </mxCell>
                <mxCell id="_AkS0FT20AcKwUdV_reK-1" value="INGREDIENTES" style="ellipse;whiteSpace=wrap;html=1;align=center;fillColor=default;" parent="1" vertex="1">
                    <mxGeometry x="340" y="455" width="100" height="40" as="geometry"/>
                </mxCell>
                <mxCell id="_AkS0FT20AcKwUdV_reK-2" value="ESTOQUE" style="ellipse;whiteSpace=wrap;html=1;align=center;fillColor=default;" parent="1" vertex="1">
                    <mxGeometry x="340" y="510" width="100" height="40" as="geometry"/>
                </mxCell>
                <mxCell id="_AkS0FT20AcKwUdV_reK-3" style="edgeStyle=entityRelationEdgeStyle;html=1;exitX=1;exitY=0.5;exitDx=0;exitDy=0;entryX=0;entryY=0.5;entryDx=0;entryDy=0;" parent="1" source="r1jwhHq4SSXFKDM6d8iw-18" target="r1jwhHq4SSXFKDM6d8iw-56" edge="1">
                    <mxGeometry relative="1" as="geometry"/>
                </mxCell>
                <mxCell id="_AkS0FT20AcKwUdV_reK-4" style="edgeStyle=entityRelationEdgeStyle;html=1;exitX=1;exitY=0.5;exitDx=0;exitDy=0;entryX=0;entryY=0.5;entryDx=0;entryDy=0;" parent="1" source="r1jwhHq4SSXFKDM6d8iw-18" target="_AkS0FT20AcKwUdV_reK-1" edge="1">
                    <mxGeometry relative="1" as="geometry"/>
                </mxCell>
                <mxCell id="_AkS0FT20AcKwUdV_reK-5" style="edgeStyle=entityRelationEdgeStyle;html=1;exitX=1;exitY=0.5;exitDx=0;exitDy=0;entryX=0;entryY=0.5;entryDx=0;entryDy=0;" parent="1" source="r1jwhHq4SSXFKDM6d8iw-18" target="_AkS0FT20AcKwUdV_reK-2" edge="1">
                    <mxGeometry relative="1" as="geometry"/>
                </mxCell>
                <mxCell id="_AkS0FT20AcKwUdV_reK-6" style="edgeStyle=entityRelationEdgeStyle;html=1;exitX=1;exitY=0.5;exitDx=0;exitDy=0;" parent="1" source="r1jwhHq4SSXFKDM6d8iw-34" target="r1jwhHq4SSXFKDM6d8iw-21" edge="1">
                    <mxGeometry relative="1" as="geometry">
                        <mxPoint x="-280" y="470" as="targetPoint"/>
                    </mxGeometry>
                </mxCell>
                <mxCell id="_AkS0FT20AcKwUdV_reK-7" value="PRODUTOS" style="shape=table;startSize=30;container=1;collapsible=1;childLayout=tableLayout;fixedRows=1;rowLines=0;fontStyle=1;align=center;resizeLast=1;fillColor=default;" parent="1" vertex="1">
                    <mxGeometry x="520" y="-170" width="370" height="240" as="geometry"/>
                </mxCell>
                <mxCell id="_AkS0FT20AcKwUdV_reK-8" value="" style="shape=tableRow;horizontal=0;startSize=0;swimlaneHead=0;swimlaneBody=0;fillColor=none;collapsible=0;dropTarget=0;points=[[0,0.5],[1,0.5]];portConstraint=eastwest;top=0;left=0;right=0;bottom=1;" parent="_AkS0FT20AcKwUdV_reK-7" vertex="1">
                    <mxGeometry y="30" width="370" height="30" as="geometry"/>
                </mxCell>
                <mxCell id="_AkS0FT20AcKwUdV_reK-9" value="PK" style="shape=partialRectangle;connectable=0;fillColor=none;top=0;left=0;bottom=0;right=0;fontStyle=1;overflow=hidden;" parent="_AkS0FT20AcKwUdV_reK-8" vertex="1">
                    <mxGeometry width="30" height="30" as="geometry">
                        <mxRectangle width="30" height="30" as="alternateBounds"/>
                    </mxGeometry>
                </mxCell>
                <mxCell id="_AkS0FT20AcKwUdV_reK-10" value="ID" style="shape=partialRectangle;connectable=0;fillColor=none;top=0;left=0;bottom=0;right=0;align=left;spacingLeft=6;fontStyle=5;overflow=hidden;" parent="_AkS0FT20AcKwUdV_reK-8" vertex="1">
                    <mxGeometry x="30" width="340" height="30" as="geometry">
                        <mxRectangle width="340" height="30" as="alternateBounds"/>
                    </mxGeometry>
                </mxCell>
                <mxCell id="_AkS0FT20AcKwUdV_reK-11" value="" style="shape=tableRow;horizontal=0;startSize=0;swimlaneHead=0;swimlaneBody=0;fillColor=none;collapsible=0;dropTarget=0;points=[[0,0.5],[1,0.5]];portConstraint=eastwest;top=0;left=0;right=0;bottom=0;" parent="_AkS0FT20AcKwUdV_reK-7" vertex="1">
                    <mxGeometry y="60" width="370" height="30" as="geometry"/>
                </mxCell>
                <mxCell id="_AkS0FT20AcKwUdV_reK-12" value="" style="shape=partialRectangle;connectable=0;fillColor=none;top=0;left=0;bottom=0;right=0;editable=1;overflow=hidden;" parent="_AkS0FT20AcKwUdV_reK-11" vertex="1">
                    <mxGeometry width="30" height="30" as="geometry">
                        <mxRectangle width="30" height="30" as="alternateBounds"/>
                    </mxGeometry>
                </mxCell>
                <mxCell id="_AkS0FT20AcKwUdV_reK-13" value="NOME" style="shape=partialRectangle;connectable=0;fillColor=none;top=0;left=0;bottom=0;right=0;align=left;spacingLeft=6;overflow=hidden;" parent="_AkS0FT20AcKwUdV_reK-11" vertex="1">
                    <mxGeometry x="30" width="340" height="30" as="geometry">
                        <mxRectangle width="340" height="30" as="alternateBounds"/>
                    </mxGeometry>
                </mxCell>
                <mxCell id="_AkS0FT20AcKwUdV_reK-14" value="" style="shape=tableRow;horizontal=0;startSize=0;swimlaneHead=0;swimlaneBody=0;fillColor=none;collapsible=0;dropTarget=0;points=[[0,0.5],[1,0.5]];portConstraint=eastwest;top=0;left=0;right=0;bottom=0;" parent="_AkS0FT20AcKwUdV_reK-7" vertex="1">
                    <mxGeometry y="90" width="370" height="30" as="geometry"/>
                </mxCell>
                <mxCell id="_AkS0FT20AcKwUdV_reK-15" value="" style="shape=partialRectangle;connectable=0;fillColor=none;top=0;left=0;bottom=0;right=0;editable=1;overflow=hidden;" parent="_AkS0FT20AcKwUdV_reK-14" vertex="1">
                    <mxGeometry width="30" height="30" as="geometry">
                        <mxRectangle width="30" height="30" as="alternateBounds"/>
                    </mxGeometry>
                </mxCell>
                <mxCell id="_AkS0FT20AcKwUdV_reK-16" value="PRECO" style="shape=partialRectangle;connectable=0;fillColor=none;top=0;left=0;bottom=0;right=0;align=left;spacingLeft=6;overflow=hidden;" parent="_AkS0FT20AcKwUdV_reK-14" vertex="1">
                    <mxGeometry x="30" width="340" height="30" as="geometry">
                        <mxRectangle width="340" height="30" as="alternateBounds"/>
                    </mxGeometry>
                </mxCell>
                <mxCell id="_AkS0FT20AcKwUdV_reK-17" value="" style="shape=tableRow;horizontal=0;startSize=0;swimlaneHead=0;swimlaneBody=0;fillColor=none;collapsible=0;dropTarget=0;points=[[0,0.5],[1,0.5]];portConstraint=eastwest;top=0;left=0;right=0;bottom=0;" parent="_AkS0FT20AcKwUdV_reK-7" vertex="1">
                    <mxGeometry y="120" width="370" height="30" as="geometry"/>
                </mxCell>
                <mxCell id="_AkS0FT20AcKwUdV_reK-18" value="" style="shape=partialRectangle;connectable=0;fillColor=none;top=0;left=0;bottom=0;right=0;editable=1;overflow=hidden;" parent="_AkS0FT20AcKwUdV_reK-17" vertex="1">
                    <mxGeometry width="30" height="30" as="geometry">
                        <mxRectangle width="30" height="30" as="alternateBounds"/>
                    </mxGeometry>
                </mxCell>
                <mxCell id="_AkS0FT20AcKwUdV_reK-19" value="TIPO_PRODUTO_ID" style="shape=partialRectangle;connectable=0;fillColor=none;top=0;left=0;bottom=0;right=0;align=left;spacingLeft=6;overflow=hidden;" parent="_AkS0FT20AcKwUdV_reK-17" vertex="1">
                    <mxGeometry x="30" width="340" height="30" as="geometry">
                        <mxRectangle width="340" height="30" as="alternateBounds"/>
                    </mxGeometry>
                </mxCell>
                <mxCell id="_AkS0FT20AcKwUdV_reK-22" value="" style="shape=partialRectangle;connectable=0;fillColor=none;top=0;left=0;bottom=0;right=0;editable=1;overflow=hidden;" parent="1" vertex="1">
                    <mxGeometry x="670" y="-20" width="30" height="30" as="geometry">
                        <mxRectangle width="30" height="30" as="alternateBounds"/>
                    </mxGeometry>
                </mxCell>
                <mxCell id="_AkS0FT20AcKwUdV_reK-23" value="PRECO_PROMOCIONAL (NULL)" style="shape=partialRectangle;connectable=0;fillColor=none;top=0;left=0;bottom=0;right=0;align=left;spacingLeft=6;overflow=hidden;" parent="1" vertex="1">
                    <mxGeometry x="560" y="-20" width="330" height="30" as="geometry">
                        <mxRectangle width="150" height="30" as="alternateBounds"/>
                    </mxGeometry>
                </mxCell>
                <mxCell id="_AkS0FT20AcKwUdV_reK-24" value="" style="shape=partialRectangle;connectable=0;fillColor=none;top=0;left=0;bottom=0;right=0;editable=1;overflow=hidden;" parent="1" vertex="1">
                    <mxGeometry x="670" y="10" width="30" height="30" as="geometry">
                        <mxRectangle width="30" height="30" as="alternateBounds"/>
                    </mxGeometry>
                </mxCell>
                <mxCell id="_AkS0FT20AcKwUdV_reK-25" value="DATA_LIMITE_PRECO_PROMOCIONAL (NULL)" style="shape=partialRectangle;connectable=0;fillColor=none;top=0;left=0;bottom=0;right=0;align=left;spacingLeft=6;overflow=hidden;" parent="1" vertex="1">
                    <mxGeometry x="560" y="10" width="290" height="30" as="geometry">
                        <mxRectangle width="150" height="30" as="alternateBounds"/>
                    </mxGeometry>
                </mxCell>
                <mxCell id="_AkS0FT20AcKwUdV_reK-26" value="" style="shape=partialRectangle;connectable=0;fillColor=none;top=0;left=0;bottom=0;right=0;editable=1;overflow=hidden;" parent="1" vertex="1">
                    <mxGeometry x="670" y="40" width="30" height="30" as="geometry">
                        <mxRectangle width="30" height="30" as="alternateBounds"/>
                    </mxGeometry>
                </mxCell>
                <mxCell id="_AkS0FT20AcKwUdV_reK-28" value="TIPO_PRODUTO" style="shape=table;startSize=30;container=1;collapsible=1;childLayout=tableLayout;fixedRows=1;rowLines=0;fontStyle=1;align=center;resizeLast=1;fillColor=default;" parent="1" vertex="1">
                    <mxGeometry x="1050" y="-330" width="180" height="120" as="geometry"/>
                </mxCell>
                <mxCell id="_AkS0FT20AcKwUdV_reK-29" value="" style="shape=tableRow;horizontal=0;startSize=0;swimlaneHead=0;swimlaneBody=0;fillColor=none;collapsible=0;dropTarget=0;points=[[0,0.5],[1,0.5]];portConstraint=eastwest;top=0;left=0;right=0;bottom=1;" parent="_AkS0FT20AcKwUdV_reK-28" vertex="1">
                    <mxGeometry y="30" width="180" height="30" as="geometry"/>
                </mxCell>
                <mxCell id="_AkS0FT20AcKwUdV_reK-30" value="PK" style="shape=partialRectangle;connectable=0;fillColor=none;top=0;left=0;bottom=0;right=0;fontStyle=1;overflow=hidden;" parent="_AkS0FT20AcKwUdV_reK-29" vertex="1">
                    <mxGeometry width="30" height="30" as="geometry">
                        <mxRectangle width="30" height="30" as="alternateBounds"/>
                    </mxGeometry>
                </mxCell>
                <mxCell id="_AkS0FT20AcKwUdV_reK-31" value="ID" style="shape=partialRectangle;connectable=0;fillColor=none;top=0;left=0;bottom=0;right=0;align=left;spacingLeft=6;fontStyle=5;overflow=hidden;" parent="_AkS0FT20AcKwUdV_reK-29" vertex="1">
                    <mxGeometry x="30" width="150" height="30" as="geometry">
                        <mxRectangle width="150" height="30" as="alternateBounds"/>
                    </mxGeometry>
                </mxCell>
                <mxCell id="_AkS0FT20AcKwUdV_reK-32" value="" style="shape=tableRow;horizontal=0;startSize=0;swimlaneHead=0;swimlaneBody=0;fillColor=none;collapsible=0;dropTarget=0;points=[[0,0.5],[1,0.5]];portConstraint=eastwest;top=0;left=0;right=0;bottom=0;" parent="_AkS0FT20AcKwUdV_reK-28" vertex="1">
                    <mxGeometry y="60" width="180" height="30" as="geometry"/>
                </mxCell>
                <mxCell id="_AkS0FT20AcKwUdV_reK-33" value="" style="shape=partialRectangle;connectable=0;fillColor=none;top=0;left=0;bottom=0;right=0;editable=1;overflow=hidden;" parent="_AkS0FT20AcKwUdV_reK-32" vertex="1">
                    <mxGeometry width="30" height="30" as="geometry">
                        <mxRectangle width="30" height="30" as="alternateBounds"/>
                    </mxGeometry>
                </mxCell>
                <mxCell id="_AkS0FT20AcKwUdV_reK-34" value="NOME" style="shape=partialRectangle;connectable=0;fillColor=none;top=0;left=0;bottom=0;right=0;align=left;spacingLeft=6;overflow=hidden;" parent="_AkS0FT20AcKwUdV_reK-32" vertex="1">
                    <mxGeometry x="30" width="150" height="30" as="geometry">
                        <mxRectangle width="150" height="30" as="alternateBounds"/>
                    </mxGeometry>
                </mxCell>
                <mxCell id="_AkS0FT20AcKwUdV_reK-35" value="" style="shape=tableRow;horizontal=0;startSize=0;swimlaneHead=0;swimlaneBody=0;fillColor=none;collapsible=0;dropTarget=0;points=[[0,0.5],[1,0.5]];portConstraint=eastwest;top=0;left=0;right=0;bottom=0;" parent="_AkS0FT20AcKwUdV_reK-28" vertex="1">
                    <mxGeometry y="90" width="180" height="30" as="geometry"/>
                </mxCell>
                <mxCell id="_AkS0FT20AcKwUdV_reK-36" value="" style="shape=partialRectangle;connectable=0;fillColor=none;top=0;left=0;bottom=0;right=0;editable=1;overflow=hidden;" parent="_AkS0FT20AcKwUdV_reK-35" vertex="1">
                    <mxGeometry width="30" height="30" as="geometry">
                        <mxRectangle width="30" height="30" as="alternateBounds"/>
                    </mxGeometry>
                </mxCell>
                <mxCell id="_AkS0FT20AcKwUdV_reK-37" value="" style="shape=partialRectangle;connectable=0;fillColor=none;top=0;left=0;bottom=0;right=0;align=left;spacingLeft=6;overflow=hidden;" parent="_AkS0FT20AcKwUdV_reK-35" vertex="1">
                    <mxGeometry x="30" width="150" height="30" as="geometry">
                        <mxRectangle width="150" height="30" as="alternateBounds"/>
                    </mxGeometry>
                </mxCell>
                <mxCell id="_AkS0FT20AcKwUdV_reK-42" value="" style="edgeStyle=entityRelationEdgeStyle;fontSize=12;html=1;endArrow=ERoneToMany;entryX=1;entryY=0.5;entryDx=0;entryDy=0;exitX=0;exitY=0.5;exitDx=0;exitDy=0;" parent="1" source="_AkS0FT20AcKwUdV_reK-29" target="_AkS0FT20AcKwUdV_reK-17" edge="1">
                    <mxGeometry width="100" height="100" relative="1" as="geometry">
                        <mxPoint x="900" y="50" as="sourcePoint"/>
                        <mxPoint x="1000" y="-50" as="targetPoint"/>
                    </mxGeometry>
                </mxCell>
                <mxCell id="_AkS0FT20AcKwUdV_reK-43" value="INGREDIENTES_PRODUTO" style="shape=table;startSize=30;container=1;collapsible=1;childLayout=tableLayout;fixedRows=1;rowLines=0;fontStyle=1;align=center;resizeLast=1;fillColor=default;" parent="1" vertex="1">
                    <mxGeometry x="1050" y="20" width="410" height="150" as="geometry"/>
                </mxCell>
                <mxCell id="_AkS0FT20AcKwUdV_reK-44" value="" style="shape=tableRow;horizontal=0;startSize=0;swimlaneHead=0;swimlaneBody=0;fillColor=none;collapsible=0;dropTarget=0;points=[[0,0.5],[1,0.5]];portConstraint=eastwest;top=0;left=0;right=0;bottom=1;" parent="_AkS0FT20AcKwUdV_reK-43" vertex="1">
                    <mxGeometry y="30" width="410" height="30" as="geometry"/>
                </mxCell>
                <mxCell id="_AkS0FT20AcKwUdV_reK-45" value="PK" style="shape=partialRectangle;connectable=0;fillColor=none;top=0;left=0;bottom=0;right=0;fontStyle=1;overflow=hidden;" parent="_AkS0FT20AcKwUdV_reK-44" vertex="1">
                    <mxGeometry width="30" height="30" as="geometry">
                        <mxRectangle width="30" height="30" as="alternateBounds"/>
                    </mxGeometry>
                </mxCell>
                <mxCell id="_AkS0FT20AcKwUdV_reK-46" value="ID" style="shape=partialRectangle;connectable=0;fillColor=none;top=0;left=0;bottom=0;right=0;align=left;spacingLeft=6;fontStyle=5;overflow=hidden;" parent="_AkS0FT20AcKwUdV_reK-44" vertex="1">
                    <mxGeometry x="30" width="380" height="30" as="geometry">
                        <mxRectangle width="380" height="30" as="alternateBounds"/>
                    </mxGeometry>
                </mxCell>
                <mxCell id="_AkS0FT20AcKwUdV_reK-47" value="" style="shape=tableRow;horizontal=0;startSize=0;swimlaneHead=0;swimlaneBody=0;fillColor=none;collapsible=0;dropTarget=0;points=[[0,0.5],[1,0.5]];portConstraint=eastwest;top=0;left=0;right=0;bottom=0;" parent="_AkS0FT20AcKwUdV_reK-43" vertex="1">
                    <mxGeometry y="60" width="410" height="30" as="geometry"/>
                </mxCell>
                <mxCell id="_AkS0FT20AcKwUdV_reK-48" value="FK" style="shape=partialRectangle;connectable=0;fillColor=none;top=0;left=0;bottom=0;right=0;editable=1;overflow=hidden;" parent="_AkS0FT20AcKwUdV_reK-47" vertex="1">
                    <mxGeometry width="30" height="30" as="geometry">
                        <mxRectangle width="30" height="30" as="alternateBounds"/>
                    </mxGeometry>
                </mxCell>
                <mxCell id="_AkS0FT20AcKwUdV_reK-49" value="PRODUTO_ID" style="shape=partialRectangle;connectable=0;fillColor=none;top=0;left=0;bottom=0;right=0;align=left;spacingLeft=6;overflow=hidden;" parent="_AkS0FT20AcKwUdV_reK-47" vertex="1">
                    <mxGeometry x="30" width="380" height="30" as="geometry">
                        <mxRectangle width="380" height="30" as="alternateBounds"/>
                    </mxGeometry>
                </mxCell>
                <mxCell id="_AkS0FT20AcKwUdV_reK-50" value="" style="shape=tableRow;horizontal=0;startSize=0;swimlaneHead=0;swimlaneBody=0;fillColor=none;collapsible=0;dropTarget=0;points=[[0,0.5],[1,0.5]];portConstraint=eastwest;top=0;left=0;right=0;bottom=0;" parent="_AkS0FT20AcKwUdV_reK-43" vertex="1">
                    <mxGeometry y="90" width="410" height="30" as="geometry"/>
                </mxCell>
                <mxCell id="_AkS0FT20AcKwUdV_reK-51" value="FK" style="shape=partialRectangle;connectable=0;fillColor=none;top=0;left=0;bottom=0;right=0;editable=1;overflow=hidden;" parent="_AkS0FT20AcKwUdV_reK-50" vertex="1">
                    <mxGeometry width="30" height="30" as="geometry">
                        <mxRectangle width="30" height="30" as="alternateBounds"/>
                    </mxGeometry>
                </mxCell>
                <mxCell id="_AkS0FT20AcKwUdV_reK-52" value="INGREDENTES_ID" style="shape=partialRectangle;connectable=0;fillColor=none;top=0;left=0;bottom=0;right=0;align=left;spacingLeft=6;overflow=hidden;" parent="_AkS0FT20AcKwUdV_reK-50" vertex="1">
                    <mxGeometry x="30" width="380" height="30" as="geometry">
                        <mxRectangle width="380" height="30" as="alternateBounds"/>
                    </mxGeometry>
                </mxCell>
                <mxCell id="_AkS0FT20AcKwUdV_reK-53" value="" style="shape=tableRow;horizontal=0;startSize=0;swimlaneHead=0;swimlaneBody=0;fillColor=none;collapsible=0;dropTarget=0;points=[[0,0.5],[1,0.5]];portConstraint=eastwest;top=0;left=0;right=0;bottom=0;" parent="_AkS0FT20AcKwUdV_reK-43" vertex="1">
                    <mxGeometry y="120" width="410" height="30" as="geometry"/>
                </mxCell>
                <mxCell id="_AkS0FT20AcKwUdV_reK-54" value="" style="shape=partialRectangle;connectable=0;fillColor=none;top=0;left=0;bottom=0;right=0;editable=1;overflow=hidden;" parent="_AkS0FT20AcKwUdV_reK-53" vertex="1">
                    <mxGeometry width="30" height="30" as="geometry">
                        <mxRectangle width="30" height="30" as="alternateBounds"/>
                    </mxGeometry>
                </mxCell>
                <mxCell id="_AkS0FT20AcKwUdV_reK-55" value="" style="shape=partialRectangle;connectable=0;fillColor=none;top=0;left=0;bottom=0;right=0;align=left;spacingLeft=6;overflow=hidden;" parent="_AkS0FT20AcKwUdV_reK-53" vertex="1">
                    <mxGeometry x="30" width="380" height="30" as="geometry">
                        <mxRectangle width="380" height="30" as="alternateBounds"/>
                    </mxGeometry>
                </mxCell>
                <mxCell id="_AkS0FT20AcKwUdV_reK-56" value="" style="edgeStyle=entityRelationEdgeStyle;fontSize=12;html=1;endArrow=ERoneToMany;entryX=0;entryY=0.5;entryDx=0;entryDy=0;exitX=0;exitY=0.5;exitDx=0;exitDy=0;" parent="1" source="r1jwhHq4SSXFKDM6d8iw-42" target="_AkS0FT20AcKwUdV_reK-50" edge="1">
                    <mxGeometry width="100" height="100" relative="1" as="geometry">
                        <mxPoint x="880" y="350" as="sourcePoint"/>
                        <mxPoint x="980" y="250" as="targetPoint"/>
                    </mxGeometry>
                </mxCell>
                <mxCell id="_AkS0FT20AcKwUdV_reK-57" value="" style="edgeStyle=entityRelationEdgeStyle;fontSize=12;html=1;endArrow=ERoneToMany;exitX=1;exitY=0.5;exitDx=0;exitDy=0;" parent="1" source="_AkS0FT20AcKwUdV_reK-8" target="_AkS0FT20AcKwUdV_reK-47" edge="1">
                    <mxGeometry width="100" height="100" relative="1" as="geometry">
                        <mxPoint x="950" y="90" as="sourcePoint"/>
                        <mxPoint x="1050" y="-10" as="targetPoint"/>
                    </mxGeometry>
                </mxCell>
            </root>
        </mxGraphModel>
    </diagram>
</mxfile>